<svg width="24" height="24" viewBox="0 0 24 24" fill="none" xmlns="http://www.w3.org/2000/svg">
<path fill-rule="evenodd" clip-rule="evenodd" d="M4 5.00002C3.45228 5.00002 3 5.4523 3 6.00002V18C3 18.5477 3.45228 19 4 19H20C20.5477 19 21 18.5477 21 18V6.00002C21 5.4523 20.5477 5.00002 20 5.00002H4ZM1 6.00002C1 4.34773 2.34772 3.00002 4 3.00002H20C21.6523 3.00002 23 4.34773 23 6.00002V18C23 19.6523 21.6523 21 20 21H4C2.34772 21 1 19.6523 1 18V6.00002Z" fill="#00856F"/>
<path fill-rule="evenodd" clip-rule="evenodd" d="M1.18073 5.42653C1.49745 4.97408 2.12098 4.86405 2.57343 5.18076L12 11.7793L21.4265 5.18076C21.879 4.86405 22.5025 4.97408 22.8192 5.42653C23.1359 5.87898 23.0259 6.50251 22.5734 6.81923L12.5734 13.8192C12.2291 14.0603 11.7708 14.0603 11.4265 13.8192L1.4265 6.81923C0.974052 6.50251 0.864017 5.87898 1.18073 5.42653Z" fill="#00856F"/>
</svg>
